<svg width="24" height="24" viewBox="0 0 24 24" fill="none" xmlns="http://www.w3.org/2000/svg">
<g clip-path="url(#clip0_1272_392)">
<path d="M22.2687 17.9663C22.4356 17.677 22.5389 17.3513 22.5389 17.0582V6.89627C22.5389 6.60414 22.4358 6.27808 22.2687 5.98877L11.8962 11.9775L22.2687 17.9663Z" fill="#00599C"/>
<path d="M12.8175 23.7349L21.6174 18.6548C21.8709 18.5084 22.1015 18.2556 22.2686 17.9663L11.8961 11.9775L1.52246 17.9663C1.68934 18.2556 1.92015 18.5082 2.17365 18.6548L10.9736 23.7349C11.4804 24.0278 12.3105 24.0278 12.8171 23.7349H12.8175Z" fill="#004482"/>
<path d="M22.2686 5.98898C22.1015 5.69911 21.8709 5.44636 21.6174 5.30067L12.8173 0.219797C12.3104 -0.0732656 11.4806 -0.0732656 10.9738 0.219797L2.17382 5.30067C1.66682 5.5928 1.25244 6.3113 1.25244 6.8963V17.058C1.25244 17.3509 1.35557 17.6768 1.52263 17.9661L11.8959 11.9775L22.2686 5.98898Z" fill="#659AD2"/>
<path d="M11.8959 4.88154C7.98329 4.88154 4.80029 8.06472 4.80029 11.9773C4.80029 15.8898 7.98329 19.073 11.8959 19.073C14.4205 19.073 16.7754 17.7142 18.0402 15.5274L14.9699 13.7503C14.3362 14.8453 13.1587 15.525 11.8959 15.525C9.93967 15.525 8.34798 13.9335 8.34798 11.9771C8.34798 10.0207 9.93986 8.42922 11.8959 8.42922C13.1577 8.42922 14.3365 9.10966 14.969 10.2039L18.0402 8.42697C16.7746 6.23997 14.4205 4.88154 11.8959 4.88154ZM17.4149 10.7943V11.5832H16.6261V12.3712H17.4149V13.16H18.203V12.3712H18.991V11.5832H18.203V10.7943H17.4149ZM20.371 10.7943V11.5832H19.5828V12.3712H20.371V13.16H21.1599V12.3712H21.9479V11.5832H21.1599V10.7943H20.371Z" fill="white"/>
</g>
<defs>
<clipPath id="clip0_1272_392">
<rect width="24" height="24" fill="white"/>
</clipPath>
</defs>
</svg>
