<svg width="24" height="24" viewBox="0 0 24 24" fill="none" xmlns="http://www.w3.org/2000/svg">
<path d="M9.52495 17.6701C9.52495 17.6701 8.72245 18.1366 10.0957 18.2949C11.5448 18.4992 13.0191 18.4366 14.4457 18.1104C14.8136 18.3313 15.1998 18.5203 15.6 18.6751C11.4892 20.4369 6.2962 18.5731 9.52495 17.6709M9.01945 15.3706C9.01945 15.3706 8.11945 16.0366 9.4942 16.1791C11.3664 16.4021 13.2627 16.3111 15.105 15.9099C15.3538 16.1425 15.6479 16.3212 15.969 16.4349C10.9987 17.8884 5.4622 16.5496 9.01945 15.3691" fill="#5382A1"/>
<path d="M13.2548 11.4705C13.3881 11.6312 13.4872 11.8174 13.5462 12.0177C13.6052 12.218 13.6228 12.4282 13.5978 12.6355C13.5729 12.8428 13.5061 13.0428 13.4013 13.2235C13.2965 13.4041 13.1561 13.5614 12.9885 13.686C12.9885 13.686 15.5603 12.3585 14.379 10.6957C13.2758 9.1455 12.429 8.3745 17.01 5.71875C17.01 5.71875 9.82051 7.51425 13.2548 11.4705Z" fill="#E76F00"/>
<path d="M18.6916 19.3704C18.6916 19.3704 19.2856 19.8594 18.0376 20.2382C15.6646 20.9567 8.16159 21.1742 6.07659 20.2667C5.32659 19.9404 6.73209 19.4882 7.17459 19.3937C7.41163 19.3358 7.65512 19.3086 7.89909 19.3127C7.06584 18.7254 2.51334 20.4654 5.58684 20.9627C13.9688 22.3217 20.8658 20.3514 18.6916 19.3704ZM9.90834 12.9887C9.90834 12.9887 6.09159 13.8954 8.55834 14.2247C10.2394 14.3561 11.9288 14.338 13.6066 14.1707C14.667 14.0744 15.7231 13.9355 16.7723 13.7544C16.439 13.8996 16.118 14.0714 15.8123 14.2682C11.9348 15.2867 4.44759 14.8127 6.60009 13.7694C7.62376 13.2491 8.75704 12.9811 9.90534 12.9879M16.7551 16.8159C20.6948 14.7684 18.8731 12.8012 17.6018 13.0659C17.4489 13.0945 17.2985 13.1348 17.1518 13.1867C17.2354 13.0683 17.3528 12.9778 17.4886 12.9272C20.0041 12.0429 21.9383 15.5357 16.6763 16.9187C16.7087 16.8891 16.7356 16.8541 16.7558 16.8152" fill="#5382A1"/>
<path d="M14.3789 1.42972C14.3789 1.42972 16.5607 3.61222 12.3097 6.96922C8.90017 9.66172 11.5319 11.197 12.3097 12.9505C10.3199 11.155 8.85967 9.57547 9.83917 8.10322C11.2769 5.94397 15.2609 4.89697 14.3812 1.42822" fill="#E76F00"/>
<path d="M10.2952 22.3637C14.0767 22.6059 19.8847 22.2294 20.0219 20.4399C20.0219 20.4399 19.7572 21.1149 16.8967 21.6572C13.7335 22.2003 10.5053 22.2509 7.32666 21.8072C7.32666 21.8072 7.81041 22.2069 10.2959 22.3667" fill="#5382A1"/>
</svg>
