<svg width="24" height="24" viewBox="0 0 24 24" fill="none" xmlns="http://www.w3.org/2000/svg">
<g clip-path="url(#clip0_1272_383)">
<path d="M10.3147 4.87613L6.30593 2.85319L1.90381 5.04938L6.023 7.11694L10.3147 4.87613ZM12.1537 5.80444L16.3576 7.9275L11.9966 10.1166L7.87156 8.046L12.1537 5.80444ZM17.7689 2.883L22.0884 5.049L18.2249 6.9885L14.0127 4.86337L17.7689 2.883ZM15.9099 1.95L12.0211 0L8.17456 1.92L12.1818 3.94012L15.9099 1.95ZM12.8699 18.6941V24L17.5803 21.6493L17.576 16.3412L12.8699 18.6941ZM17.5737 14.4881L17.5685 9.23587L12.8697 11.5717V16.8262L17.5737 14.4881ZM23.2284 13.5045V18.8314L19.2102 20.8358L19.2071 15.5334L23.2284 13.5045ZM23.2284 11.6417V6.42188L19.2027 8.42306L19.2057 13.6858L23.2284 11.6417Z" fill="#4DABCF"/>
<path d="M11.2068 11.5716L8.03467 9.97562V16.8692C8.03467 16.8692 4.15342 8.61306 3.79492 7.87112C3.7488 7.77493 3.55811 7.6705 3.50955 7.64443C2.80998 7.27937 0.771484 6.24756 0.771484 6.24756V18.4307L3.59148 19.9426V13.5715C3.59148 13.5715 7.43111 20.9489 7.47067 21.0302C7.5108 21.1107 7.89386 21.8871 8.30674 22.1605C8.85424 22.5241 11.2051 23.9374 11.2051 23.9374L11.2068 11.5716Z" fill="#4C75CF"/>
</g>
<defs>
<clipPath id="clip0_1272_383">
<rect width="24" height="24" fill="white"/>
</clipPath>
</defs>
</svg>
