<svg width="24" height="24" viewBox="0 0 24 24" fill="none" xmlns="http://www.w3.org/2000/svg">
<g clip-path="url(#clip0_1272_367)">
<path d="M12.0847 0.224121C8.98412 0.224121 6.01057 1.45581 3.81815 3.64823C1.62573 5.84064 0.394043 8.8142 0.394043 11.9147C0.394093 15.0153 1.6258 17.9888 3.81821 20.1811C6.01063 22.3735 8.98415 23.6052 12.0847 23.6052C15.1594 23.6051 18.1104 22.3937 20.2984 20.2334C22.4863 18.073 23.7351 15.1377 23.7742 12.0632L23.7751 11.9147L23.7742 11.7662C23.7351 8.69162 22.4863 5.75627 20.2984 3.59592C18.1104 1.43557 15.1594 0.224169 12.0847 0.224121Z" fill="white"/>
<path d="M9.41497 6.93559C9.4741 6.93559 9.53265 6.92394 9.58728 6.90131C9.64191 6.87869 9.69155 6.84552 9.73336 6.80371C9.77518 6.76189 9.80834 6.71225 9.83097 6.65762C9.8536 6.60299 9.86525 6.54444 9.86525 6.48531C9.86525 6.42618 9.8536 6.36762 9.83097 6.31299C9.80834 6.25836 9.77518 6.20872 9.73336 6.16691C9.69155 6.1251 9.64191 6.09193 9.58728 6.0693C9.53265 6.04667 9.4741 6.03503 9.41497 6.03503C9.29555 6.03503 9.18102 6.08247 9.09657 6.16691C9.01213 6.25136 8.96469 6.36589 8.96469 6.48531C8.96469 6.60473 9.01213 6.71926 9.09657 6.80371C9.18102 6.88815 9.29555 6.93559 9.41497 6.93559ZM8.44531 7.61453C8.56098 7.61453 8.67191 7.56858 8.7537 7.48679C8.83549 7.405 8.88144 7.29407 8.88144 7.1784C8.88144 7.06273 8.83549 6.9518 8.7537 6.87002C8.67191 6.78823 8.56098 6.74228 8.44531 6.74228C8.32964 6.74228 8.21871 6.78823 8.13692 6.87002C8.05514 6.9518 8.00919 7.06273 8.00919 7.1784C8.00919 7.29407 8.05514 7.405 8.13692 7.48679C8.21871 7.56858 8.32964 7.61453 8.44531 7.61453ZM7.51259 8.04653C7.6215 8.04653 7.72594 8.00327 7.80295 7.92626C7.87996 7.84925 7.92322 7.74481 7.92322 7.6359C7.92322 7.527 7.87996 7.42255 7.80295 7.34555C7.72594 7.26854 7.6215 7.22528 7.51259 7.22528C7.40369 7.22528 7.29924 7.26854 7.22224 7.34555C7.14523 7.42255 7.10197 7.527 7.10197 7.6359C7.10197 7.74481 7.14523 7.84925 7.22224 7.92626C7.29924 8.00327 7.40369 8.04653 7.51259 8.04653ZM10.2329 6.39915C10.2946 6.40039 10.3559 6.38932 10.4132 6.36658C10.4706 6.34384 10.5228 6.30989 10.5668 6.26672C10.6109 6.22354 10.6459 6.17202 10.6698 6.11516C10.6936 6.05829 10.7059 5.99724 10.7059 5.93556C10.7059 5.87388 10.6936 5.81282 10.6698 5.75596C10.6459 5.6991 10.6109 5.64757 10.5668 5.6044C10.5228 5.56123 10.4706 5.52728 10.4132 5.50454C10.3559 5.4818 10.2946 5.47072 10.2329 5.47196C10.1116 5.47441 9.99605 5.52432 9.9111 5.611C9.82615 5.69767 9.77857 5.8142 9.77857 5.93556C9.77857 6.05692 9.82615 6.17345 9.9111 6.26012C9.99605 6.3468 10.1116 6.39671 10.2329 6.39915ZM6.81275 7.07284C6.89537 7.07284 6.97461 7.04002 7.03303 6.98159C7.09146 6.92317 7.12428 6.84393 7.12428 6.76131C7.12428 6.67869 7.09146 6.59945 7.03303 6.54102C6.97461 6.4826 6.89537 6.44978 6.81275 6.44978C6.73013 6.44978 6.65089 6.4826 6.59246 6.54102C6.53404 6.59945 6.50122 6.67869 6.50122 6.76131C6.50122 6.84393 6.53404 6.92317 6.59246 6.98159C6.65089 7.04002 6.73013 7.07284 6.81275 7.07284ZM6.04353 8.77947C6.14169 8.77947 6.23584 8.74047 6.30525 8.67106C6.37466 8.60165 6.41366 8.5075 6.41366 8.40934C6.41366 8.31118 6.37466 8.21703 6.30525 8.14762C6.23584 8.07821 6.14169 8.03921 6.04353 8.03921C5.94537 8.03921 5.85122 8.07821 5.78181 8.14762C5.7124 8.21703 5.6734 8.31118 5.6734 8.40934C5.6734 8.5075 5.7124 8.60165 5.78181 8.67106C5.85122 8.74047 5.94537 8.77947 6.04353 8.77947ZM6.51434 5.84884C6.63263 5.84884 6.74608 5.80185 6.82972 5.7182C6.91337 5.63456 6.96036 5.52112 6.96036 5.40282C6.96036 5.28453 6.91337 5.17109 6.82972 5.08744C6.74608 5.0038 6.63263 4.95681 6.51434 4.95681C6.39605 4.95681 6.28261 5.0038 6.19896 5.08744C6.11532 5.17109 6.06833 5.28453 6.06833 5.40282C6.06833 5.52112 6.11532 5.63456 6.19896 5.7182C6.28261 5.80185 6.39605 5.84884 6.51434 5.84884ZM7.71781 6.6834C7.76378 6.68447 7.8095 6.67635 7.85229 6.65949C7.89507 6.64264 7.93405 6.61741 7.96695 6.58528C7.99984 6.55314 8.02597 6.51476 8.04382 6.47238C8.06166 6.43 8.07085 6.38448 8.07085 6.3385C8.07085 6.29251 8.06166 6.24699 8.04382 6.20461C8.02597 6.16224 7.99984 6.12385 7.96695 6.09172C7.93405 6.05958 7.89507 6.03435 7.85229 6.0175C7.8095 6.00065 7.76378 5.99252 7.71781 5.99359C7.62731 5.99508 7.54102 6.03208 7.47754 6.09661C7.41407 6.16114 7.3785 6.24803 7.3785 6.33854C7.3785 6.42906 7.41407 6.51595 7.47754 6.58048C7.54102 6.645 7.62731 6.68191 7.71781 6.6834ZM13.6657 5.65403C13.7727 5.65403 13.8753 5.61153 13.9509 5.53589C14.0265 5.46024 14.069 5.35765 14.069 5.25067C14.069 5.14369 14.0265 5.04109 13.9509 4.96545C13.8753 4.88981 13.7727 4.84731 13.6657 4.84731C13.5587 4.84731 13.4561 4.88981 13.3805 4.96545C13.3048 5.04109 13.2623 5.14369 13.2623 5.25067C13.2623 5.35765 13.3048 5.46024 13.3805 5.53589C13.4561 5.61153 13.5587 5.65403 13.6657 5.65403ZM5.20634 7.79209C5.27119 7.79209 5.33338 7.76633 5.37923 7.72048C5.42508 7.67462 5.45084 7.61244 5.45084 7.54759C5.45084 7.48274 5.42508 7.42055 5.37923 7.3747C5.33338 7.32885 5.27119 7.30309 5.20634 7.30309C5.1415 7.30309 5.07931 7.32885 5.03345 7.3747C4.9876 7.42055 4.96184 7.48274 4.96184 7.54759C4.96184 7.61244 4.9876 7.67462 5.03345 7.72048C5.07931 7.76633 5.1415 7.79209 5.20634 7.79209ZM6.01869 7.56184C6.05722 7.56253 6.09551 7.55554 6.13132 7.54127C6.16712 7.527 6.19972 7.50575 6.22722 7.47874C6.25472 7.45173 6.27656 7.41951 6.29147 7.38397C6.30638 7.34843 6.31406 7.31027 6.31406 7.27173C6.31406 7.23319 6.30638 7.19503 6.29147 7.15949C6.27656 7.12395 6.25472 7.09173 6.22722 7.06472C6.19972 7.03772 6.16712 7.01646 6.13132 7.00219C6.09551 6.98792 6.05722 6.98093 6.01869 6.98162C5.94173 6.98162 5.86793 7.01219 5.81351 7.06661C5.7591 7.12102 5.72853 7.19482 5.72853 7.27178C5.72853 7.34873 5.7591 7.42253 5.81351 7.47695C5.86793 7.53136 5.94173 7.56184 6.01869 7.56184ZM4.53734 6.64253C4.58836 6.64332 4.63902 6.63396 4.68638 6.61499C4.73374 6.59602 4.77685 6.56782 4.81321 6.53203C4.84957 6.49623 4.87844 6.45356 4.89815 6.40651C4.91785 6.35945 4.928 6.30894 4.928 6.25792C4.928 6.2069 4.91785 6.15639 4.89815 6.10933C4.87844 6.06227 4.84957 6.0196 4.81321 5.98381C4.77685 5.94802 4.73374 5.91981 4.68638 5.90084C4.63902 5.88187 4.58836 5.87251 4.53734 5.87331C4.43638 5.87488 4.34008 5.9161 4.26924 5.98806C4.1984 6.06001 4.15869 6.15694 4.15869 6.25792C4.15869 6.3589 4.1984 6.45582 4.26924 6.52778C4.34008 6.59974 4.43638 6.64095 4.53734 6.64253ZM6.05056 6.47303C6.07725 6.4736 6.10379 6.46885 6.12862 6.45903C6.15345 6.44921 6.17607 6.43454 6.19515 6.41586C6.21423 6.39719 6.2294 6.37489 6.23975 6.35028C6.2501 6.32567 6.25543 6.29924 6.25543 6.27254C6.25543 6.24584 6.2501 6.21941 6.23975 6.1948C6.2294 6.17019 6.21423 6.1479 6.19515 6.12922C6.17607 6.11055 6.15345 6.09587 6.12862 6.08606C6.10379 6.07624 6.07725 6.07148 6.05056 6.07206C5.99814 6.07319 5.94825 6.09481 5.91158 6.13229C5.8749 6.16976 5.85437 6.22011 5.85437 6.27254C5.85437 6.32498 5.8749 6.37532 5.91158 6.4128C5.94825 6.45027 5.99814 6.47189 6.05056 6.47303ZM8.73509 6.16046C8.78425 6.16046 8.83292 6.15078 8.87833 6.13197C8.92374 6.11316 8.965 6.08559 8.99976 6.05084C9.03452 6.01608 9.06209 5.97482 9.0809 5.92941C9.09971 5.88399 9.10939 5.83532 9.10939 5.78617C9.10939 5.73701 9.09971 5.68834 9.0809 5.64293C9.06209 5.59752 9.03452 5.55626 8.99976 5.5215C8.965 5.48674 8.92374 5.45917 8.87833 5.44036C8.83292 5.42155 8.78425 5.41187 8.73509 5.41187C8.63582 5.41187 8.54062 5.45131 8.47042 5.5215C8.40023 5.59169 8.3608 5.6869 8.3608 5.78617C8.3608 5.88544 8.40023 5.98064 8.47042 6.05084C8.54062 6.12103 8.63582 6.16046 8.73509 6.16046ZM11.5785 6.37712C11.6214 6.37785 11.664 6.37004 11.7038 6.35413C11.7437 6.33823 11.7799 6.31455 11.8105 6.28448C11.8411 6.25442 11.8654 6.21856 11.882 6.17901C11.8986 6.13945 11.9071 6.09699 11.9071 6.05411C11.9071 6.01122 11.8986 5.96876 11.882 5.92921C11.8654 5.88965 11.8411 5.8538 11.8105 5.82373C11.7799 5.79366 11.7437 5.76998 11.7038 5.75408C11.664 5.73817 11.6214 5.73036 11.5785 5.73109C11.4942 5.73312 11.414 5.76804 11.3551 5.82839C11.2962 5.88873 11.2633 5.96973 11.2633 6.05406C11.2633 6.13839 11.2962 6.21938 11.3551 6.27973C11.414 6.34008 11.4942 6.37509 11.5785 6.37712ZM12.1698 4.36178C12.2259 4.36178 12.2797 4.3395 12.3193 4.29986C12.3589 4.26021 12.3812 4.20644 12.3812 4.15037C12.3812 4.0943 12.3589 4.04053 12.3193 4.00088C12.2797 3.96124 12.2259 3.93896 12.1698 3.93896C12.1137 3.93896 12.06 3.96124 12.0203 4.00088C11.9807 4.04053 11.9584 4.0943 11.9584 4.15037C11.9584 4.20644 11.9807 4.26021 12.0203 4.29986C12.06 4.3395 12.1137 4.36178 12.1698 4.36178ZM12.8571 5.57884C12.9508 5.57884 13.0406 5.54162 13.1069 5.47538C13.1731 5.40913 13.2103 5.31928 13.2103 5.22559C13.2103 5.1319 13.1731 5.04205 13.1069 4.9758C13.0406 4.90956 12.9508 4.87234 12.8571 4.87234C12.7634 4.87234 12.6736 4.90956 12.6073 4.9758C12.5411 5.04205 12.5038 5.1319 12.5038 5.22559C12.5038 5.31928 12.5411 5.40913 12.6073 5.47538C12.6736 5.54162 12.7634 5.57884 12.8571 5.57884ZM9.32806 5.37278C9.42433 5.37278 9.51667 5.33453 9.58474 5.26646C9.65282 5.19838 9.69106 5.10605 9.69106 5.00978C9.69106 4.9135 9.65282 4.82117 9.58474 4.7531C9.51667 4.68502 9.42433 4.64678 9.32806 4.64678C9.23179 4.64678 9.13946 4.68502 9.07138 4.7531C9.00331 4.82117 8.96506 4.9135 8.96506 5.00978C8.96506 5.10605 9.00331 5.19838 9.07138 5.26646C9.13946 5.33453 9.23179 5.37278 9.32806 5.37278ZM4.781 8.86131C4.85912 8.86131 4.93404 8.83027 4.98929 8.77503C5.04453 8.71979 5.07556 8.64487 5.07556 8.56675C5.07556 8.48862 5.04453 8.4137 4.98929 8.35846C4.93404 8.30322 4.85912 8.27218 4.781 8.27218C4.70288 8.27218 4.62795 8.30322 4.57271 8.35846C4.51747 8.4137 4.48644 8.48862 4.48644 8.56675C4.48644 8.64487 4.51747 8.71979 4.57271 8.77503C4.62795 8.83027 4.70288 8.86131 4.781 8.86131Z" fill="#AFDAD2" stroke="white" stroke-width="0.0234375"/>
<path d="M14.4824 5.73125C14.6014 5.73125 14.7155 5.68399 14.7996 5.59986C14.8837 5.51574 14.931 5.40163 14.931 5.28266C14.931 5.16369 14.8837 5.04958 14.7996 4.96546C14.7155 4.88133 14.6014 4.83407 14.4824 4.83407C14.3634 4.83407 14.2493 4.88133 14.1652 4.96546C14.081 5.04958 14.0338 5.16369 14.0338 5.28266C14.0338 5.40163 14.081 5.51574 14.1652 5.59986C14.2493 5.68399 14.3634 5.73125 14.4824 5.73125ZM10.1538 5.42741C10.2079 5.42741 10.2615 5.41676 10.3114 5.39607C10.3614 5.37538 10.4068 5.34505 10.445 5.30681C10.4832 5.26858 10.5136 5.22319 10.5343 5.17323C10.5549 5.12327 10.5656 5.06973 10.5656 5.01566C10.5656 4.96159 10.5549 4.90805 10.5343 4.85809C10.5136 4.80813 10.4832 4.76274 10.445 4.72451C10.4068 4.68627 10.3614 4.65595 10.3114 4.63525C10.2615 4.61456 10.2079 4.60391 10.1538 4.60391C10.0446 4.60391 9.93992 4.64729 9.8627 4.72451C9.78548 4.80173 9.7421 4.90646 9.7421 5.01566C9.7421 5.12486 9.78548 5.22959 9.8627 5.30681C9.93992 5.38403 10.0446 5.42741 10.1538 5.42741ZM5.36988 5.75928C5.47113 5.75928 5.56823 5.71906 5.63982 5.64747C5.71141 5.57588 5.75163 5.47878 5.75163 5.37754C5.75163 5.27629 5.71141 5.17919 5.63982 5.1076C5.56823 5.036 5.47113 4.99578 5.36988 4.99578C5.26863 4.99578 5.17153 5.036 5.09994 5.1076C5.02835 5.17919 4.98813 5.27629 4.98813 5.37754C4.98813 5.47878 5.02835 5.57588 5.09994 5.64747C5.17153 5.71906 5.26863 5.75928 5.36988 5.75928ZM7.49444 4.77369C7.6115 4.77369 7.72377 4.72719 7.80654 4.64442C7.88932 4.56164 7.93582 4.44938 7.93582 4.33232C7.93582 4.21526 7.88932 4.10299 7.80654 4.02022C7.72377 3.93744 7.6115 3.89094 7.49444 3.89094C7.37738 3.89094 7.26512 3.93744 7.18234 4.02022C7.09957 4.10299 7.05307 4.21526 7.05307 4.33232C7.05307 4.44938 7.09957 4.56164 7.18234 4.64442C7.26512 4.72719 7.37738 4.77369 7.49444 4.77369ZM15.7749 5.36807C15.8472 5.36807 15.9166 5.33934 15.9677 5.28822C16.0188 5.23709 16.0475 5.16775 16.0475 5.09544C16.0475 5.02314 16.0188 4.95379 15.9677 4.90267C15.9166 4.85154 15.8472 4.82282 15.7749 4.82282C15.7026 4.82282 15.6333 4.85154 15.5821 4.90267C15.531 4.95379 15.5023 5.02314 15.5023 5.09544C15.5023 5.16775 15.531 5.23709 15.5821 5.28822C15.6333 5.33934 15.7026 5.36807 15.7749 5.36807ZM6.27897 4.25469C6.32519 4.25577 6.37116 4.24759 6.41417 4.23065C6.45719 4.2137 6.49638 4.18833 6.52945 4.15602C6.56252 4.12371 6.58879 4.08512 6.60673 4.04251C6.62467 3.99991 6.63391 3.95414 6.63391 3.90791C6.63391 3.86168 6.62467 3.81591 6.60673 3.77331C6.58879 3.7307 6.56252 3.69211 6.52945 3.6598C6.49638 3.62749 6.45719 3.60212 6.41417 3.58517C6.37116 3.56823 6.32519 3.56005 6.27897 3.56113C6.1884 3.56324 6.10224 3.6007 6.03893 3.6655C5.97561 3.7303 5.94016 3.81731 5.94016 3.90791C5.94016 3.99851 5.97561 4.08552 6.03893 4.15032C6.10224 4.21512 6.1884 4.25259 6.27897 4.25469ZM7.84282 5.80794C7.92109 5.80794 7.99616 5.77685 8.0515 5.7215C8.10685 5.66615 8.13794 5.59109 8.13794 5.51282C8.13794 5.43454 8.10685 5.35948 8.0515 5.30413C7.99616 5.24878 7.92109 5.21769 7.84282 5.21769C7.76455 5.21769 7.68948 5.24878 7.63413 5.30413C7.57879 5.35948 7.54769 5.43454 7.54769 5.51282C7.54769 5.59109 7.57879 5.66615 7.63413 5.7215C7.68948 5.77685 7.76455 5.80794 7.84282 5.80794ZM8.54988 5.16744C8.5897 5.16814 8.62927 5.1609 8.66626 5.14614C8.70326 5.13138 8.73694 5.1094 8.76535 5.08148C8.79376 5.05356 8.81632 5.02026 8.83172 4.98353C8.84712 4.9468 8.85505 4.90736 8.85504 4.86753C8.85504 4.8277 8.84709 4.78827 8.83168 4.75155C8.81627 4.71482 8.7937 4.68153 8.76528 4.65362C8.73687 4.62571 8.70318 4.60374 8.66618 4.58899C8.62918 4.57424 8.58961 4.56701 8.54979 4.56772C8.47118 4.56911 8.39626 4.60132 8.34116 4.6574C8.28606 4.71348 8.25518 4.78896 8.25518 4.86758C8.25518 4.9462 8.28606 5.02168 8.34116 5.07776C8.39626 5.13385 8.47127 5.16605 8.54988 5.16744ZM3.91882 5.92916C3.99888 5.92916 4.07566 5.89736 4.13228 5.84074C4.18889 5.78413 4.22069 5.70735 4.22069 5.62728C4.22069 5.54722 4.18889 5.47044 4.13228 5.41383C4.07566 5.35721 3.99888 5.32541 3.91882 5.32541C3.83875 5.32541 3.76197 5.35721 3.70536 5.41383C3.64875 5.47044 3.61694 5.54722 3.61694 5.62728C3.61694 5.70735 3.64875 5.78413 3.70536 5.84074C3.76197 5.89736 3.83875 5.92916 3.91882 5.92916ZM4.75019 4.75532C4.82364 4.75532 4.89408 4.72614 4.94602 4.6742C4.99795 4.62227 5.02713 4.55183 5.02713 4.47838C5.02713 4.40493 4.99795 4.33449 4.94602 4.28255C4.89408 4.23062 4.82364 4.20144 4.75019 4.20144C4.67674 4.20144 4.6063 4.23062 4.55437 4.28255C4.50243 4.33449 4.47325 4.40493 4.47325 4.47838C4.47325 4.55183 4.50243 4.62227 4.55437 4.6742C4.6063 4.72614 4.67674 4.75532 4.75019 4.75532ZM11.1396 5.6151C11.2012 5.6151 11.2603 5.59064 11.3038 5.5471C11.3473 5.50356 11.3718 5.4445 11.3718 5.38293C11.3718 5.32135 11.3473 5.2623 11.3038 5.21876C11.2603 5.17521 11.2012 5.15075 11.1396 5.15075C11.0781 5.15075 11.019 5.17521 10.9755 5.21876C10.9319 5.2623 10.9075 5.32135 10.9075 5.38293C10.9075 5.4445 10.9319 5.50356 10.9755 5.5471C11.019 5.59064 11.0781 5.6151 11.1396 5.6151ZM3.70582 7.45738C3.80757 7.45738 3.90516 7.41696 3.97711 7.345C4.04907 7.27305 4.08949 7.17546 4.08949 7.07371C4.08949 6.97195 4.04907 6.87436 3.97711 6.80241C3.90516 6.73046 3.80757 6.69004 3.70582 6.69004C3.60406 6.69004 3.50647 6.73046 3.43452 6.80241C3.36257 6.87436 3.32215 6.97195 3.32215 7.07371C3.32215 7.17546 3.36257 7.27305 3.43452 7.345C3.50647 7.41696 3.60406 7.45738 3.70582 7.45738ZM2.84894 6.8105C2.88726 6.81119 2.92532 6.80425 2.96092 6.79006C2.99652 6.77588 3.02893 6.75474 3.05627 6.72789C3.08361 6.70104 3.10533 6.66901 3.12015 6.63367C3.13498 6.59834 3.14261 6.5604 3.14261 6.52208C3.14261 6.48376 3.13498 6.44583 3.12015 6.41049C3.10533 6.37515 3.08361 6.34312 3.05627 6.31627C3.02893 6.28942 2.99652 6.26829 2.96092 6.2541C2.92532 6.23992 2.88726 6.23297 2.84894 6.23366C2.77335 6.23502 2.70131 6.26601 2.64833 6.31995C2.59536 6.37389 2.56567 6.44648 2.56567 6.52208C2.56567 6.59769 2.59536 6.67027 2.64833 6.72421C2.70131 6.77815 2.77335 6.80914 2.84894 6.8105ZM11.9313 5.54769C12.0083 5.54769 12.0821 5.51712 12.1365 5.46271C12.1909 5.40829 12.2215 5.33449 12.2215 5.25753C12.2215 5.18058 12.1909 5.10678 12.1365 5.05236C12.0821 4.99795 12.0083 4.96738 11.9313 4.96738C11.8544 4.96738 11.7806 4.99795 11.7262 5.05236C11.6718 5.10678 11.6412 5.18058 11.6412 5.25753C11.6412 5.33449 11.6718 5.40829 11.7262 5.46271C11.7806 5.51712 11.8544 5.54769 11.9313 5.54769ZM5.33557 7.05416C5.45419 7.05416 5.56796 7.00704 5.65184 6.92315C5.73572 6.83927 5.78285 6.72551 5.78285 6.60688C5.78285 6.48825 5.73572 6.37448 5.65184 6.2906C5.56796 6.20672 5.45419 6.1596 5.33557 6.1596C5.21694 6.1596 5.10317 6.20672 5.01929 6.2906C4.93541 6.37448 4.88829 6.48825 4.88829 6.60688C4.88829 6.72551 4.93541 6.83927 5.01929 6.92315C5.10317 7.00704 5.21694 7.05416 5.33557 7.05416Z" fill="#AFDAD2" stroke="white" stroke-width="0.0234375"/>
<path d="M15.1883 5.0203C15.2477 5.02116 15.3067 5.0102 15.3618 4.98805C15.417 4.96591 15.4672 4.93302 15.5095 4.8913C15.5518 4.84958 15.5854 4.79986 15.6084 4.74504C15.6313 4.69021 15.6431 4.63138 15.6431 4.57195C15.6431 4.51251 15.6313 4.45368 15.6084 4.39885C15.5854 4.34403 15.5518 4.29431 15.5095 4.25259C15.4672 4.21087 15.417 4.17798 15.3618 4.15584C15.3067 4.13369 15.2477 4.12273 15.1883 4.12359C15.0705 4.12529 14.9581 4.17328 14.8754 4.25717C14.7927 4.34107 14.7463 4.45414 14.7463 4.57195C14.7463 4.68975 14.7927 4.80282 14.8754 4.88672C14.9581 4.97061 15.0705 5.0186 15.1883 5.0203ZM3.9436 9.24515C4.01262 9.24515 4.07882 9.21773 4.12762 9.16892C4.17643 9.12012 4.20385 9.05392 4.20385 8.9849C4.20385 8.91588 4.17643 8.84968 4.12762 8.80087C4.07882 8.75207 4.01262 8.72465 3.9436 8.72465C3.87458 8.72465 3.80838 8.75207 3.75958 8.80087C3.71077 8.84968 3.68335 8.91588 3.68335 8.9849C3.68335 9.05392 3.71077 9.12012 3.75958 9.16892C3.80838 9.21773 3.87458 9.24515 3.9436 9.24515ZM10.4442 4.16887C10.4917 4.16964 10.5389 4.16095 10.5829 4.14331C10.627 4.12568 10.6671 4.09944 10.701 4.06614C10.7348 4.03284 10.7617 3.99314 10.7801 3.94935C10.7984 3.90556 10.8079 3.85855 10.8079 3.81107C10.8079 3.76359 10.7984 3.71658 10.7801 3.67279C10.7617 3.629 10.7348 3.5893 10.701 3.556C10.6671 3.5227 10.627 3.49646 10.5829 3.47883C10.5389 3.46119 10.4917 3.45251 10.4442 3.45327C10.3503 3.45479 10.2608 3.49316 10.1949 3.56009C10.1291 3.62703 10.0922 3.71717 10.0922 3.81107C10.0922 3.90497 10.1291 3.99511 10.1949 4.06205C10.2608 4.12898 10.3503 4.16735 10.4442 4.16887ZM17.878 4.66162C17.926 4.66162 17.9736 4.65216 18.0179 4.63379C18.0623 4.61542 18.1026 4.5885 18.1365 4.55456C18.1704 4.52061 18.1974 4.48032 18.2157 4.43597C18.2341 4.39162 18.2436 4.34409 18.2436 4.29609C18.2436 4.24808 18.2341 4.20055 18.2157 4.1562C18.1974 4.11185 18.1704 4.07156 18.1365 4.03762C18.1026 4.00367 18.0623 3.97675 18.0179 3.95838C17.9736 3.94001 17.926 3.93055 17.878 3.93055C17.7811 3.93055 17.6881 3.96907 17.6196 4.03762C17.551 4.10617 17.5125 4.19914 17.5125 4.29609C17.5125 4.39303 17.551 4.48601 17.6196 4.55456C17.6881 4.62311 17.7811 4.66162 17.878 4.66162ZM13.0159 4.47543C13.0931 4.47543 13.1671 4.44476 13.2217 4.39017C13.2763 4.33558 13.307 4.26154 13.307 4.18434C13.307 4.10713 13.2763 4.03309 13.2217 3.9785C13.1671 3.92391 13.0931 3.89324 13.0159 3.89324C12.9387 3.89324 12.8646 3.92391 12.81 3.9785C12.7555 4.03309 12.7248 4.10713 12.7248 4.18434C12.7248 4.26154 12.7555 4.33558 12.81 4.39017C12.8646 4.44476 12.9387 4.47543 13.0159 4.47543ZM6.67088 8.31477C6.77152 8.31477 6.86803 8.2748 6.93919 8.20363C7.01036 8.13247 7.05033 8.03596 7.05033 7.93532C7.05033 7.83468 7.01036 7.73817 6.93919 7.66701C6.86803 7.59585 6.77152 7.55587 6.67088 7.55587C6.57024 7.55587 6.47373 7.59585 6.40257 7.66701C6.33141 7.73817 6.29143 7.83468 6.29143 7.93532C6.29143 8.03596 6.33141 8.13247 6.40257 8.20363C6.47373 8.2748 6.57024 8.31477 6.67088 8.31477ZM14.0029 4.60068C14.0992 4.60068 14.1916 4.56241 14.2598 4.49428C14.3279 4.42615 14.3662 4.33375 14.3662 4.2374C14.3662 4.14105 14.3279 4.04865 14.2598 3.98052C14.1916 3.91239 14.0992 3.87412 14.0029 3.87412C13.9065 3.87412 13.8141 3.91239 13.746 3.98052C13.6779 4.04865 13.6396 4.14105 13.6396 4.2374C13.6396 4.33375 13.6779 4.42615 13.746 4.49428C13.8141 4.56241 13.9065 4.60068 14.0029 4.60068ZM16.5752 4.95477C16.6147 4.95477 16.6539 4.94699 16.6904 4.93186C16.7269 4.91672 16.7601 4.89455 16.7881 4.86659C16.816 4.83863 16.8382 4.80544 16.8534 4.76891C16.8685 4.73238 16.8763 4.69323 16.8763 4.6537C16.8763 4.61416 16.8685 4.57501 16.8534 4.53848C16.8382 4.50195 16.816 4.46876 16.7881 4.4408C16.7601 4.41284 16.7269 4.39067 16.6904 4.37554C16.6539 4.3604 16.6147 4.35262 16.5752 4.35262C16.4953 4.35262 16.4188 4.38434 16.3623 4.4408C16.3058 4.49726 16.2741 4.57384 16.2741 4.6537C16.2741 4.73355 16.3058 4.81013 16.3623 4.86659C16.4188 4.92305 16.4953 4.95477 16.5752 4.95477ZM19.4171 5.60727C19.4891 5.60727 19.5581 5.57868 19.609 5.52778C19.6599 5.47688 19.6885 5.40785 19.6885 5.33587C19.6885 5.26389 19.6599 5.19485 19.609 5.14395C19.5581 5.09306 19.4891 5.06446 19.4171 5.06446C19.3451 5.06446 19.2761 5.09306 19.2252 5.14395C19.1743 5.19485 19.1457 5.26389 19.1457 5.33587C19.1457 5.40785 19.1743 5.47688 19.2252 5.52778C19.2761 5.57868 19.3451 5.60727 19.4171 5.60727ZM9.26251 3.6133C9.32454 3.6133 9.38404 3.58866 9.4279 3.5448C9.47177 3.50093 9.49641 3.44143 9.49641 3.3794C9.49641 3.31736 9.47177 3.25787 9.4279 3.214C9.38404 3.17014 9.32454 3.14549 9.26251 3.14549C9.20047 3.14549 9.14097 3.17014 9.09711 3.214C9.05324 3.25787 9.0286 3.31736 9.0286 3.3794C9.0286 3.44143 9.05324 3.50093 9.09711 3.5448C9.14097 3.58866 9.20047 3.6133 9.26251 3.6133ZM11.389 2.9713C11.4799 2.9713 11.5669 2.93523 11.6312 2.87101C11.6954 2.8068 11.7315 2.7197 11.7315 2.62888C11.7315 2.53807 11.6954 2.45097 11.6312 2.38675C11.5669 2.32254 11.4799 2.28646 11.389 2.28646C11.2982 2.28646 11.2111 2.32254 11.1469 2.38675C11.0827 2.45097 11.0466 2.53807 11.0466 2.62888C11.0466 2.7197 11.0827 2.8068 11.1469 2.87101C11.2111 2.93523 11.2982 2.9713 11.389 2.9713ZM19.3566 4.80674C19.4762 4.80674 19.591 4.75921 19.6756 4.67461C19.7602 4.59001 19.8077 4.47526 19.8077 4.35562C19.8077 4.23597 19.7602 4.12123 19.6756 4.03662C19.591 3.95202 19.4762 3.90449 19.3566 3.90449C19.2369 3.90449 19.1222 3.95202 19.0376 4.03662C18.953 4.12123 18.9054 4.23597 18.9054 4.35562C18.9054 4.47526 18.953 4.59001 19.0376 4.67461C19.1222 4.75921 19.2369 4.80674 19.3566 4.80674ZM10.8724 4.99105C10.9854 4.99105 11.0939 4.94614 11.1738 4.86619C11.2538 4.78623 11.2987 4.6778 11.2987 4.56473C11.2987 4.45166 11.2538 4.34322 11.1738 4.26327C11.0939 4.18332 10.9854 4.1384 10.8724 4.1384C10.7593 4.1384 10.6509 4.18331 10.571 4.26325C10.491 4.3432 10.4461 4.45162 10.4461 4.56468C10.4461 4.67774 10.491 4.78616 10.571 4.86611C10.6509 4.94605 10.7593 4.99096 10.8724 4.99096V4.99105ZM12.4495 3.39346C12.5623 3.39346 12.6705 3.34866 12.7502 3.26891C12.83 3.18916 12.8748 3.08099 12.8748 2.96821C12.8748 2.85543 12.83 2.74726 12.7502 2.66751C12.6705 2.58776 12.5623 2.54296 12.4495 2.54296C12.3368 2.54296 12.2286 2.58776 12.1488 2.66751C12.0691 2.74726 12.0243 2.85543 12.0243 2.96821C12.0243 3.08099 12.0691 3.18916 12.1488 3.26891C12.2286 3.34866 12.3368 3.39346 12.4495 3.39346ZM16.1361 3.91152C16.1945 3.91238 16.2525 3.90161 16.3067 3.87985C16.3609 3.85809 16.4102 3.82577 16.4518 3.78478C16.4934 3.74378 16.5264 3.69493 16.549 3.64105C16.5715 3.58717 16.5831 3.52935 16.5831 3.47095C16.5831 3.41254 16.5715 3.35472 16.549 3.30084C16.5264 3.24696 16.4934 3.19811 16.4518 3.15711C16.4102 3.11612 16.3609 3.0838 16.3067 3.06204C16.2525 3.04028 16.1945 3.02952 16.1361 3.03037C16.0203 3.03206 15.9099 3.07922 15.8287 3.16166C15.7474 3.2441 15.7019 3.3552 15.7019 3.47095C15.7019 3.58669 15.7474 3.69779 15.8287 3.78023C15.9099 3.86267 16.0203 3.90983 16.1361 3.91152ZM20.6969 6.68099C20.7524 6.68217 20.8076 6.67225 20.8593 6.65182C20.9109 6.63139 20.9579 6.60085 20.9976 6.562C21.0373 6.52316 21.0688 6.47678 21.0903 6.42559C21.1119 6.3744 21.1229 6.31943 21.1229 6.2639C21.1229 6.20837 21.1119 6.1534 21.0903 6.10221C21.0688 6.05102 21.0373 6.00464 20.9976 5.96579C20.9579 5.92694 20.9109 5.89641 20.8593 5.87598C20.8076 5.85555 20.7524 5.84563 20.6969 5.8468C20.5878 5.84912 20.484 5.89408 20.4076 5.97205C20.3313 6.05001 20.2886 6.15479 20.2886 6.2639C20.2886 6.37301 20.3313 6.47778 20.4076 6.55575C20.484 6.63372 20.5878 6.67868 20.6969 6.68099ZM11.2928 1.63152C11.3559 1.63152 11.4165 1.60644 11.4611 1.56178C11.5058 1.51712 11.5309 1.45655 11.5309 1.3934C11.5309 1.33024 11.5058 1.26968 11.4611 1.22502C11.4165 1.18036 11.3559 1.15527 11.2928 1.15527C11.2296 1.15527 11.169 1.18036 11.1244 1.22502C11.0797 1.26968 11.0546 1.33024 11.0546 1.3934C11.0546 1.45655 11.0797 1.51712 11.1244 1.56178C11.169 1.60644 11.2296 1.63152 11.2928 1.63152Z" fill="#AFDAD2" stroke="white" stroke-width="0.0234375"/>
<path d="M15.0958 4.15957C15.1489 4.16038 15.2015 4.15064 15.2508 4.13091C15.3 4.11117 15.3448 4.08185 15.3826 4.04463C15.4204 4.00742 15.4504 3.96306 15.4709 3.91414C15.4913 3.86522 15.5019 3.81272 15.5019 3.75968C15.5019 3.70664 15.4913 3.65414 15.4709 3.60522C15.4504 3.5563 15.4204 3.51194 15.3826 3.47472C15.3448 3.43751 15.3 3.40818 15.2508 3.38845C15.2015 3.36872 15.1489 3.35898 15.0958 3.35979C14.9908 3.3614 14.8907 3.40424 14.817 3.47905C14.7433 3.55387 14.702 3.65467 14.702 3.75968C14.702 3.86469 14.7433 3.96549 14.817 4.0403C14.8907 4.11512 14.9908 4.15796 15.0958 4.15957ZM14.5608 3.39148C14.6464 3.39148 14.7285 3.35747 14.789 3.29694C14.8496 3.2364 14.8836 3.1543 14.8836 3.0687C14.8836 2.98309 14.8496 2.90099 14.789 2.84045C14.7285 2.77992 14.6464 2.74591 14.5608 2.74591C14.4752 2.74591 14.3931 2.77992 14.3326 2.84045C14.272 2.90099 14.238 2.98309 14.238 3.0687C14.238 3.1543 14.272 3.2364 14.3326 3.29694C14.3931 3.35747 14.4752 3.39148 14.5608 3.39148ZM12.9387 2.68873C12.9931 2.68873 13.047 2.67801 13.0972 2.6572C13.1475 2.63638 13.1932 2.60587 13.2316 2.56741C13.2701 2.52895 13.3006 2.48329 13.3214 2.43304C13.3422 2.38279 13.3529 2.32893 13.3529 2.27454C13.3529 2.22015 13.3422 2.16629 13.3214 2.11604C13.3006 2.06578 13.2701 2.02013 13.2316 1.98166C13.1932 1.9432 13.1475 1.91269 13.0972 1.89188C13.047 1.87106 12.9931 1.86035 12.9387 1.86035C12.8289 1.86035 12.7235 1.90399 12.6459 1.98166C12.5682 2.05934 12.5246 2.16469 12.5246 2.27454C12.5246 2.38439 12.5682 2.48974 12.6459 2.56741C12.7235 2.64509 12.8289 2.68873 12.9387 2.68873ZM8.37021 4.37763C8.43118 4.37763 8.49155 4.36562 8.54789 4.34229C8.60422 4.31896 8.6554 4.28476 8.69851 4.24164C8.74163 4.19853 8.77583 4.14735 8.79916 4.09101C8.82249 4.03468 8.8345 3.97431 8.8345 3.91334C8.8345 3.85236 8.82249 3.79199 8.79916 3.73566C8.77583 3.67933 8.74163 3.62814 8.69851 3.58503C8.6554 3.54191 8.60422 3.50771 8.54789 3.48438C8.49155 3.46105 8.43118 3.44904 8.37021 3.44904C8.24707 3.44904 8.12897 3.49796 8.0419 3.58503C7.95483 3.6721 7.90591 3.7902 7.90591 3.91334C7.90591 4.03648 7.95483 4.15457 8.0419 4.24164C8.12897 4.32872 8.24707 4.37763 8.37021 4.37763ZM5.50586 3.69401C5.53907 3.69401 5.57195 3.68747 5.60262 3.67476C5.6333 3.66205 5.66117 3.64343 5.68465 3.61995C5.70813 3.59647 5.72675 3.5686 5.73946 3.53792C5.75217 3.50725 5.75871 3.47437 5.75871 3.44116C5.75871 3.40796 5.75217 3.37508 5.73946 3.34441C5.72675 3.31373 5.70813 3.28586 5.68465 3.26238C5.66117 3.2389 5.6333 3.22027 5.60262 3.20757C5.57195 3.19486 5.53907 3.18832 5.50586 3.18832C5.4388 3.18832 5.37449 3.21496 5.32708 3.26238C5.27966 3.30979 5.25302 3.37411 5.25302 3.44116C5.25302 3.50822 5.27966 3.57253 5.32708 3.61995C5.37449 3.66737 5.4388 3.69401 5.50586 3.69401ZM6.70783 3.52441C6.75087 3.52441 6.79349 3.51594 6.83326 3.49947C6.87302 3.48299 6.90915 3.45885 6.93959 3.42842C6.97002 3.39798 6.99416 3.36185 7.01063 3.32209C7.0271 3.28232 7.03558 3.2397 7.03558 3.19666C7.03558 3.15362 7.0271 3.111 7.01063 3.07124C6.99416 3.03148 6.97002 2.99534 6.93959 2.96491C6.90915 2.93448 6.87302 2.91033 6.83326 2.89386C6.79349 2.87739 6.75087 2.86891 6.70783 2.86891C6.62091 2.86891 6.53754 2.90344 6.47608 2.96491C6.41461 3.02637 6.38008 3.10974 6.38008 3.19666C6.38008 3.28359 6.41461 3.36695 6.47608 3.42842C6.53754 3.48988 6.62091 3.52441 6.70783 3.52441ZM17.7203 5.51013C17.7738 5.51095 17.827 5.5011 17.8768 5.48116C17.9265 5.46123 17.9718 5.4316 18.01 5.394C18.0481 5.3564 18.0784 5.31159 18.0991 5.26217C18.1198 5.21274 18.1305 5.1597 18.1305 5.10612C18.1305 5.05254 18.1198 4.99949 18.0991 4.95007C18.0784 4.90065 18.0481 4.85583 18.01 4.81823C17.9718 4.78064 17.9265 4.75101 17.8768 4.73107C17.827 4.71113 17.7738 4.70129 17.7203 4.7021C17.6142 4.70372 17.513 4.74699 17.4385 4.82259C17.3641 4.89818 17.3224 5.00002 17.3224 5.10612C17.3224 5.21222 17.3641 5.31406 17.4385 5.38965C17.513 5.46524 17.6142 5.50852 17.7203 5.51013ZM13.288 3.3806C13.3475 3.3806 13.4045 3.35697 13.4466 3.31489C13.4887 3.27282 13.5123 3.21576 13.5123 3.15626C13.5123 3.09676 13.4887 3.0397 13.4466 2.99762C13.4045 2.95555 13.3475 2.93191 13.288 2.93191C13.2285 2.93191 13.1714 2.95555 13.1293 2.99762C13.0872 3.0397 13.0636 3.09676 13.0636 3.15626C13.0636 3.21576 13.0872 3.27282 13.1293 3.31489C13.1714 3.35697 13.2285 3.3806 13.288 3.3806ZM8.52415 3.42579C8.58003 3.42579 8.63536 3.41478 8.68699 3.3934C8.73862 3.37201 8.78553 3.34067 8.82504 3.30115C8.86455 3.26164 8.8959 3.21473 8.91728 3.1631C8.93867 3.11147 8.94968 3.05614 8.94968 3.00026C8.94968 2.94438 8.93867 2.88904 8.91728 2.83741C8.8959 2.78579 8.86455 2.73888 8.82504 2.69936C8.78553 2.65985 8.73862 2.6285 8.68699 2.60712C8.63536 2.58573 8.58003 2.57473 8.52415 2.57473C8.41129 2.57473 8.30305 2.61956 8.22325 2.69936C8.14345 2.77916 8.09861 2.8874 8.09861 3.00026C8.09861 3.11312 8.14345 3.22135 8.22325 3.30115C8.30305 3.38096 8.41129 3.42579 8.52415 3.42579ZM2.28058 8.64166C2.32916 8.64166 2.37727 8.6321 2.42215 8.6135C2.46703 8.59491 2.50782 8.56766 2.54217 8.53331C2.57652 8.49896 2.60377 8.45818 2.62236 8.4133C2.64095 8.36841 2.65052 8.32031 2.65052 8.27173C2.65052 8.22315 2.64095 8.17504 2.62236 8.13016C2.60377 8.08527 2.57652 8.04449 2.54217 8.01014C2.50782 7.97579 2.46703 7.94854 2.42215 7.92995C2.37727 7.91136 2.32916 7.90179 2.28058 7.90179C2.18247 7.90179 2.08837 7.94076 2.019 8.01014C1.94962 8.07952 1.91064 8.17361 1.91064 8.27173C1.91064 8.36984 1.94962 8.46393 2.019 8.53331C2.08837 8.60269 2.18247 8.64166 2.28058 8.64166ZM3.26608 8.76935C3.38008 8.76935 3.48942 8.72406 3.57003 8.64345C3.65064 8.56284 3.69593 8.45351 3.69593 8.33951C3.69593 8.22551 3.65064 8.11617 3.57003 8.03556C3.48942 7.95495 3.38008 7.90966 3.26608 7.90966C3.15208 7.90966 3.04275 7.95495 2.96214 8.03556C2.88153 8.11617 2.83624 8.22551 2.83624 8.33951C2.83624 8.45351 2.88153 8.56284 2.96214 8.64345C3.04275 8.72406 3.15208 8.76935 3.26608 8.76935ZM6.73943 4.97998C6.79374 4.97998 6.84753 4.96928 6.89771 4.94849C6.9479 4.9277 6.99349 4.89724 7.0319 4.85883C7.07031 4.82042 7.10078 4.77482 7.12157 4.72464C7.14235 4.67446 7.15305 4.62067 7.15305 4.56635C7.15305 4.51203 7.14235 4.45825 7.12157 4.40806C7.10078 4.35788 7.07031 4.31228 7.0319 4.27387C6.99349 4.23547 6.9479 4.205 6.89771 4.18421C6.84753 4.16343 6.79374 4.15273 6.73943 4.15273C6.62971 4.15273 6.52449 4.19631 6.44692 4.27389C6.36934 4.35147 6.32575 4.45669 6.32575 4.5664C6.32575 4.67611 6.36934 4.78133 6.44692 4.85891C6.52449 4.93649 6.62971 4.97998 6.73943 4.97998ZM2.40218 7.72085C2.48721 7.72085 2.56876 7.68707 2.62889 7.62694C2.68902 7.56681 2.7228 7.48526 2.7228 7.40023C2.7228 7.31519 2.68902 7.23364 2.62889 7.17351C2.56876 7.11338 2.48721 7.0796 2.40218 7.0796C2.31714 7.0796 2.23559 7.11338 2.17546 7.17351C2.11533 7.23364 2.08155 7.31519 2.08155 7.40023C2.08155 7.48526 2.11533 7.56681 2.17546 7.62694C2.23559 7.68707 2.31714 7.72085 2.40218 7.72085ZM15.3295 3.06682C15.4225 3.06682 15.5118 3.02985 15.5776 2.96406C15.6434 2.89826 15.6803 2.80901 15.6803 2.71596C15.6803 2.62291 15.6434 2.53366 15.5776 2.46787C15.5118 2.40207 15.4225 2.3651 15.3295 2.3651C15.2364 2.3651 15.1472 2.40207 15.0814 2.46787C15.0156 2.53366 14.9786 2.62291 14.9786 2.71596C14.9786 2.80901 15.0156 2.89826 15.0814 2.96406C15.1472 3.02985 15.2364 3.06682 15.3295 3.06682ZM5.56258 4.54001C5.64726 4.54001 5.72846 4.50637 5.78834 4.4465C5.84821 4.38662 5.88185 4.30542 5.88185 4.22074C5.88185 4.13607 5.84821 4.05486 5.78834 3.99499C5.72846 3.93511 5.64726 3.90148 5.56258 3.90148C5.47792 3.90148 5.39673 3.93511 5.33686 3.99497C5.27699 4.05484 5.24336 4.13603 5.24336 4.2207C5.24336 4.30536 5.27699 4.38655 5.33686 4.44642C5.39673 4.50628 5.47792 4.54001 5.56258 4.54001Z" fill="#AFDAD2" stroke="white" stroke-width="0.0234375"/>
<path d="M4.01479 8.38547C4.07359 8.38547 4.13182 8.37389 4.18615 8.35138C4.24048 8.32888 4.28984 8.29589 4.33143 8.25431C4.37301 8.21273 4.40599 8.16337 4.4285 8.10904C4.451 8.05471 4.46258 7.99648 4.46258 7.93767C4.46258 7.87887 4.451 7.82064 4.4285 7.76631C4.40599 7.71198 4.37301 7.66261 4.33143 7.62103C4.28984 7.57945 4.24048 7.54647 4.18615 7.52396C4.13182 7.50146 4.07359 7.48987 4.01479 7.48987C3.89602 7.48987 3.78212 7.53705 3.69815 7.62103C3.61417 7.70501 3.56699 7.81891 3.56699 7.93767C3.56699 8.05644 3.61417 8.17033 3.69815 8.25431C3.78212 8.33829 3.89602 8.38547 4.01479 8.38547ZM18.5703 5.33841C18.6285 5.33926 18.6862 5.32854 18.7402 5.30687C18.7941 5.28521 18.8433 5.25303 18.8847 5.21221C18.9261 5.17138 18.959 5.12273 18.9815 5.06909C19.0039 5.01544 19.0155 4.95786 19.0155 4.8997C19.0155 4.84155 19.0039 4.78397 18.9815 4.73032C18.959 4.67667 18.9261 4.62802 18.8847 4.5872C18.8433 4.54638 18.7941 4.5142 18.7402 4.49253C18.6862 4.47087 18.6285 4.46015 18.5703 4.461C18.454 4.461 18.3424 4.50723 18.2601 4.58951C18.1778 4.67179 18.1316 4.78339 18.1316 4.89975C18.1316 5.01611 18.1778 5.12771 18.2601 5.20999C18.3424 5.29227 18.454 5.33841 18.5703 5.33841ZM20.152 5.28619C20.192 5.28689 20.2319 5.27961 20.2691 5.26477C20.3063 5.24992 20.3402 5.22781 20.3688 5.19972C20.3974 5.17163 20.4201 5.13813 20.4356 5.10117C20.4511 5.06421 20.4591 5.02453 20.4591 4.98445C20.4591 4.94437 20.4511 4.9047 20.4356 4.86774C20.4201 4.83078 20.3974 4.79728 20.3688 4.76919C20.3402 4.7411 20.3063 4.71899 20.2691 4.70414C20.2319 4.6893 20.192 4.68201 20.152 4.68272C20.0729 4.68411 19.9975 4.71652 19.942 4.77295C19.8866 4.82938 19.8555 4.90534 19.8555 4.98445C19.8555 5.06357 19.8866 5.13952 19.942 5.19596C19.9975 5.25239 20.0729 5.28479 20.152 5.28619ZM9.72079 4.53937C9.80992 4.53937 9.89541 4.50397 9.95844 4.44094C10.0215 4.37791 10.0569 4.29242 10.0569 4.20328C10.0569 4.11414 10.0215 4.02866 9.95844 3.96563C9.89541 3.9026 9.80992 3.86719 9.72079 3.86719C9.63165 3.86719 9.54616 3.9026 9.48313 3.96563C9.4201 4.02866 9.38469 4.11414 9.38469 4.20328C9.38469 4.29242 9.4201 4.37791 9.48313 4.44094C9.54616 4.50397 9.63165 4.53937 9.72079 4.53937ZM17.0983 4.16156C17.1357 4.16224 17.1728 4.15547 17.2076 4.14163C17.2423 4.12779 17.274 4.10716 17.3006 4.08096C17.3273 4.05475 17.3485 4.02349 17.363 3.989C17.3775 3.95451 17.3849 3.91748 17.3849 3.88008C17.3849 3.84267 17.3775 3.80565 17.363 3.77116C17.3485 3.73666 17.3273 3.7054 17.3006 3.6792C17.274 3.65299 17.2423 3.63237 17.2076 3.61853C17.1728 3.60469 17.1357 3.59791 17.0983 3.59859C17.0245 3.59994 16.9542 3.63019 16.9025 3.68283C16.8508 3.73547 16.8219 3.8063 16.8219 3.88008C16.8219 3.95386 16.8508 4.02468 16.9025 4.07733C16.9542 4.12997 17.0245 4.16022 17.0983 4.16156ZM16.9773 3.45628C17.0991 3.45628 17.2158 3.40791 17.3019 3.32182C17.388 3.23572 17.4364 3.11895 17.4364 2.99719C17.4364 2.87543 17.388 2.75866 17.3019 2.67256C17.2158 2.58646 17.0991 2.53809 16.9773 2.53809C16.8556 2.53809 16.7388 2.58646 16.6527 2.67256C16.5666 2.75866 16.5182 2.87543 16.5182 2.99719C16.5182 3.11895 16.5666 3.23572 16.6527 3.32182C16.7388 3.40791 16.8556 3.45628 16.9773 3.45628ZM11.3173 4.23872C11.4261 4.23872 11.5305 4.19547 11.6075 4.11849C11.6845 4.04151 11.7277 3.9371 11.7277 3.82823C11.7277 3.71937 11.6845 3.61496 11.6075 3.53798C11.5305 3.461 11.4261 3.41775 11.3173 3.41775C11.2084 3.41775 11.104 3.461 11.027 3.53798C10.95 3.61496 10.9068 3.71937 10.9068 3.82823C10.9068 3.9371 10.95 4.04151 11.027 4.11849C11.104 4.19547 11.2084 4.23872 11.3173 4.23872ZM19.9907 6.22275C20.037 6.22275 20.0828 6.21364 20.1255 6.19595C20.1682 6.17825 20.207 6.15231 20.2397 6.11962C20.2724 6.08692 20.2983 6.0481 20.316 6.00538C20.3337 5.96266 20.3428 5.91687 20.3428 5.87062C20.3428 5.82438 20.3337 5.77859 20.316 5.73587C20.2983 5.69315 20.2724 5.65433 20.2397 5.62164C20.207 5.58894 20.1682 5.563 20.1255 5.5453C20.0828 5.52761 20.037 5.5185 19.9907 5.5185C19.8973 5.5185 19.8078 5.5556 19.7417 5.62164C19.6757 5.68767 19.6386 5.77724 19.6386 5.87062C19.6386 5.96401 19.6757 6.05358 19.7417 6.11962C19.8078 6.18565 19.8973 6.22275 19.9907 6.22275ZM3.18163 9.402C3.2364 9.402 3.28894 9.38024 3.32767 9.34151C3.3664 9.30278 3.38816 9.25024 3.38816 9.19547C3.38816 9.14069 3.3664 9.08816 3.32767 9.04943C3.28894 9.0107 3.2364 8.98894 3.18163 8.98894C3.12685 8.98894 3.07432 9.0107 3.03559 9.04943C2.99686 9.08816 2.9751 9.14069 2.9751 9.19547C2.9751 9.25024 2.99686 9.30278 3.03559 9.34151C3.07432 9.38024 3.12685 9.402 3.18163 9.402ZM7.52179 3.67556C7.62405 3.67556 7.72213 3.63494 7.79444 3.56262C7.86675 3.49031 7.90738 3.39223 7.90738 3.28997C7.90738 3.1877 7.86675 3.08963 7.79444 3.01731C7.72213 2.945 7.62405 2.90437 7.52179 2.90437C7.41952 2.90437 7.32144 2.945 7.24913 3.01731C7.17682 3.08963 7.13619 3.1877 7.13619 3.28997C7.13619 3.39223 7.17682 3.49031 7.24913 3.56262C7.32144 3.63494 7.41952 3.67556 7.52179 3.67556ZM10.3362 3.04688C10.4092 3.04688 10.4793 3.01786 10.5309 2.9662C10.5826 2.91455 10.6116 2.84449 10.6116 2.77144C10.6116 2.69839 10.5826 2.62833 10.5309 2.57667C10.4793 2.52502 10.4092 2.496 10.3362 2.496C10.2631 2.496 10.1931 2.52502 10.1414 2.57667C10.0897 2.62833 10.0607 2.69839 10.0607 2.77144C10.0607 2.84449 10.0897 2.91455 10.1414 2.9662C10.1931 3.01786 10.2631 3.04688 10.3362 3.04688ZM18.3287 3.89494C18.4206 3.89494 18.5088 3.85843 18.5738 3.79344C18.6388 3.72845 18.6753 3.6403 18.6753 3.54839C18.6753 3.45648 18.6388 3.36834 18.5738 3.30334C18.5088 3.23835 18.4206 3.20184 18.3287 3.20184C18.2368 3.20184 18.1487 3.23835 18.0837 3.30334C18.0187 3.36834 17.9822 3.45648 17.9822 3.54839C17.9822 3.6403 18.0187 3.72845 18.0837 3.79344C18.1487 3.85843 18.2368 3.89494 18.3287 3.89494ZM9.56647 2.49075C9.68076 2.49075 9.79037 2.44535 9.87118 2.36454C9.95199 2.28372 9.99739 2.17412 9.99739 2.05983C9.99739 1.94554 9.95199 1.83593 9.87118 1.75512C9.79037 1.67431 9.68076 1.62891 9.56647 1.62891C9.45218 1.62891 9.34258 1.67431 9.26177 1.75512C9.18095 1.83593 9.13555 1.94554 9.13555 2.05983C9.13555 2.17412 9.18095 2.28372 9.26177 2.36454C9.34258 2.44535 9.45218 2.49075 9.56647 2.49075Z" fill="#AFDAD2" stroke="white" stroke-width="0.0234375"/>
<path d="M16.3266 2.9022C16.4323 2.9022 16.5337 2.86022 16.6084 2.78549C16.6831 2.71076 16.7251 2.6094 16.7251 2.50372C16.7251 2.39803 16.6831 2.29668 16.6084 2.22195C16.5337 2.14722 16.4323 2.10523 16.3266 2.10523C16.221 2.10523 16.1196 2.14721 16.0449 2.22193C15.9702 2.29666 15.9282 2.398 15.9282 2.50367C15.9282 2.60934 15.9702 2.71069 16.0449 2.78541C16.1196 2.86013 16.221 2.9022 16.3266 2.9022ZM7.6244 2.47733C7.70906 2.47733 7.79025 2.4437 7.85012 2.38383C7.90998 2.32397 7.94361 2.24277 7.94361 2.15811C7.94361 2.07345 7.90998 1.99225 7.85012 1.93239C7.79025 1.87252 7.70906 1.83889 7.6244 1.83889C7.53973 1.83889 7.45854 1.87252 7.39867 1.93239C7.33881 1.99225 7.30518 2.07345 7.30518 2.15811C7.30518 2.24277 7.33881 2.32397 7.39867 2.38383C7.45854 2.4437 7.53973 2.47733 7.6244 2.47733ZM8.39089 2.23058C8.43714 2.23058 8.48294 2.22147 8.52567 2.20377C8.56839 2.18607 8.60722 2.16013 8.63992 2.12743C8.67262 2.09473 8.69856 2.0559 8.71626 2.01318C8.73396 1.97045 8.74307 1.92465 8.74307 1.87841C8.74307 1.83216 8.73396 1.78636 8.71626 1.74364C8.69856 1.70091 8.67262 1.66209 8.63992 1.62938C8.60722 1.59668 8.56839 1.57074 8.52567 1.55304C8.48294 1.53534 8.43714 1.52623 8.39089 1.52623C8.29749 1.52623 8.20792 1.56334 8.14187 1.62938C8.07583 1.69543 8.03872 1.785 8.03872 1.87841C8.03872 1.97181 8.07583 2.06138 8.14187 2.12743C8.20792 2.19347 8.29749 2.23058 8.39089 2.23058ZM13.8186 1.7892C13.9282 1.7892 14.0333 1.74567 14.1108 1.66819C14.1883 1.59071 14.2318 1.48562 14.2318 1.37605C14.2318 1.26647 14.1883 1.16138 14.1108 1.0839C14.0333 1.00642 13.9282 0.962891 13.8186 0.962891C13.7091 0.962891 13.604 1.00642 13.5265 1.0839C13.449 1.16138 13.4055 1.26647 13.4055 1.37605C13.4055 1.48562 13.449 1.59071 13.5265 1.66819C13.604 1.74567 13.7091 1.7892 13.8186 1.7892ZM12.1586 1.87677C12.2008 1.87677 12.2427 1.86845 12.2817 1.85229C12.3207 1.83613 12.3561 1.81244 12.386 1.78258C12.4159 1.75272 12.4395 1.71727 12.4557 1.67826C12.4719 1.63925 12.4802 1.59743 12.4802 1.5552C12.4802 1.51297 12.4719 1.47116 12.4557 1.43215C12.4395 1.39313 12.4159 1.35768 12.386 1.32782C12.3561 1.29796 12.3207 1.27428 12.2817 1.25812C12.2427 1.24196 12.2008 1.23364 12.1586 1.23364C12.0733 1.23364 11.9915 1.26752 11.9312 1.32782C11.8709 1.38813 11.8371 1.46992 11.8371 1.5552C11.8371 1.64049 11.8709 1.72228 11.9312 1.78258C11.9915 1.84289 12.0733 1.87677 12.1586 1.87677ZM14.6437 2.2692C14.709 2.2692 14.7715 2.2433 14.8176 2.19718C14.8637 2.15106 14.8896 2.08852 14.8896 2.0233C14.8896 1.95808 14.8637 1.89553 14.8176 1.84941C14.7715 1.8033 14.709 1.77739 14.6437 1.77739C14.5785 1.77739 14.516 1.8033 14.4699 1.84941C14.4237 1.89553 14.3978 1.95808 14.3978 2.0233C14.3978 2.08852 14.4237 2.15106 14.4699 2.19718C14.516 2.2433 14.5785 2.2692 14.6437 2.2692Z" fill="#AFDAD2" stroke="white" stroke-width="0.0234375"/>
<path d="M13.8226 2.64684C13.883 2.64771 13.943 2.63655 13.9991 2.61403C14.0552 2.5915 14.1062 2.55806 14.1493 2.51563C14.1923 2.47321 14.2265 2.42265 14.2498 2.3669C14.2731 2.31115 14.2851 2.25132 14.2851 2.19089C14.2851 2.13045 14.2731 2.07062 14.2498 2.01487C14.2265 1.95912 14.1923 1.90857 14.1493 1.86614C14.1062 1.82372 14.0552 1.79027 13.9991 1.76775C13.943 1.74522 13.883 1.73407 13.8226 1.73493C13.7028 1.73665 13.5885 1.78544 13.5044 1.87077C13.4203 1.95609 13.3731 2.07108 13.3731 2.19089C13.3731 2.31069 13.4203 2.42569 13.5044 2.51101C13.5885 2.59633 13.7028 2.64512 13.8226 2.64684ZM15.6323 2.20443C15.7158 2.20443 15.796 2.17123 15.8551 2.11213C15.9142 2.05303 15.9474 1.97287 15.9474 1.88929C15.9474 1.80571 15.9142 1.72556 15.8551 1.66645C15.796 1.60735 15.7158 1.57415 15.6323 1.57415C15.5487 1.57415 15.4685 1.60735 15.4094 1.66645C15.3503 1.72556 15.3171 1.80571 15.3171 1.88929C15.3171 1.97287 15.3503 2.05303 15.4094 2.11213C15.4685 2.17123 15.5487 2.20443 15.6323 2.20443ZM1.49298 9.89081C1.59796 9.89081 1.69863 9.84911 1.77286 9.77488C1.84709 9.70065 1.88879 9.59997 1.88879 9.495C1.88879 9.39002 1.84709 9.28934 1.77286 9.21511C1.69863 9.14088 1.59796 9.09918 1.49298 9.09918C1.388 9.09918 1.28733 9.14088 1.2131 9.21511C1.13887 9.28934 1.09717 9.39002 1.09717 9.495C1.09717 9.59997 1.13887 9.70065 1.2131 9.77488C1.28733 9.84911 1.388 9.89081 1.49298 9.89081ZM10.4739 2.17725C10.5304 2.17725 10.5846 2.1548 10.6245 2.11483C10.6645 2.07487 10.6869 2.02067 10.6869 1.96415C10.6869 1.90764 10.6645 1.85344 10.6245 1.81347C10.5846 1.77351 10.5304 1.75106 10.4739 1.75106C10.4173 1.75106 10.3631 1.77351 10.3232 1.81347C10.2832 1.85344 10.2608 1.90764 10.2608 1.96415C10.2608 2.02067 10.2832 2.07487 10.3232 2.11483C10.3631 2.1548 10.4173 2.17725 10.4739 2.17725ZM17.7946 3.1529C17.8628 3.1529 17.9282 3.1258 17.9765 3.07757C18.0247 3.02933 18.0518 2.96391 18.0518 2.8957C18.0518 2.82748 18.0247 2.76206 17.9765 2.71383C17.9282 2.66559 17.8628 2.6385 17.7946 2.6385C17.7264 2.6385 17.661 2.66559 17.6128 2.71382C17.5645 2.76204 17.5374 2.82745 17.5374 2.89565C17.5374 2.96385 17.5645 3.02926 17.6128 3.07749C17.661 3.12572 17.7264 3.1529 17.7946 3.1529ZM12.9882 1.86637C13.0869 1.86637 13.1815 1.82719 13.2512 1.75744C13.321 1.6877 13.3601 1.5931 13.3601 1.49446C13.3601 1.39583 13.321 1.30123 13.2512 1.23149C13.1815 1.16174 13.0869 1.12256 12.9882 1.12256C12.8896 1.12256 12.795 1.16174 12.7253 1.23149C12.6555 1.30123 12.6163 1.39583 12.6163 1.49446C12.6163 1.5931 12.6555 1.6877 12.7253 1.75744C12.795 1.82719 12.8896 1.86637 12.9882 1.86637ZM4.49523 7.51387C4.55151 7.51387 4.60723 7.50279 4.65922 7.48125C4.71121 7.45972 4.75846 7.42815 4.79825 7.38836C4.83804 7.34856 4.86961 7.30132 4.89114 7.24933C4.91268 7.19734 4.92376 7.14161 4.92376 7.08534C4.92376 7.02906 4.91268 6.97334 4.89114 6.92135C4.86961 6.86936 4.83804 6.82211 4.79825 6.78232C4.75846 6.74253 4.71121 6.71096 4.65922 6.68943C4.60723 6.66789 4.55151 6.65681 4.49523 6.65681C4.38158 6.65681 4.27258 6.70196 4.19221 6.78232C4.11185 6.86269 4.0667 6.97169 4.0667 7.08534C4.0667 7.19899 4.11185 7.30799 4.19221 7.38836C4.27258 7.46872 4.38158 7.51387 4.49523 7.51387Z" fill="#AFDAD2" stroke="white" stroke-width="0.0234375"/>
<path d="M16.3447 5.48999L15.9025 5.47949L15.4602 5.48962L15.018 5.52037L14.5759 5.57127L14.1344 5.64187L13.6932 5.73102L13.2527 5.8379L12.813 5.96109L12.3738 6.09927L11.9355 6.25077L11.4979 6.41399L11.061 6.58724L10.6248 6.76874L10.1894 6.95671L9.75445 7.14946L9.3202 7.34512L8.45339 7.73887L8.02083 7.93396L7.58864 8.12596L7.15692 8.31365L6.72567 8.49599L6.2948 8.67205L5.8642 8.8409L5.43389 9.00215L5.00386 9.15496L4.57401 9.29915L4.14436 9.43452L3.71489 9.5609L3.28533 9.67827L2.85595 9.78684L2.42648 9.88659L1.99692 9.9779L1.56736 10.061L1.13761 10.1363L0.666233 10.2109L0.64542 10.3543C0.504825 11.3247 0.489198 12.3092 0.59892 13.2836L0.62892 13.5501L1.25142 13.2739L1.68548 13.0781L2.5523 12.6844L2.98486 12.4894L3.41686 12.2979L3.8483 12.1117L4.27898 11.9325L4.70911 11.7619L5.13848 11.6017L5.56711 11.4536L5.99498 11.3189L6.4222 11.1992L6.84867 11.0958L7.27439 11.0095L7.69955 10.9417L8.12423 10.8928L8.54845 10.8633L8.97248 10.8535L9.39642 10.8637L9.82036 10.8936L10.2447 10.9429L10.6694 11.011L11.0944 11.0974L11.5202 11.201L11.9467 11.3207L12.3738 11.4553L12.8017 11.6033L13.2304 11.7634L13.6598 11.9337L14.0898 12.1128L14.5206 12.2987L14.952 12.4899L15.384 12.6846L16.2497 13.0778L16.6833 13.2734L17.1174 13.4662L17.552 13.6552L17.987 13.8392L18.4223 14.017L18.858 14.1879L19.2939 14.3512L19.7302 14.5064L20.1666 14.6529L20.6032 14.7906L21.0399 14.9191L21.4768 15.0385L21.9135 15.149L22.3503 15.2505L22.9646 15.3813L23.0156 15.206C23.3051 14.2111 23.4586 13.1816 23.4718 12.1455L23.4727 12.0009L23.4718 11.8552L23.4688 11.6992C23.4319 10.2942 23.1372 8.9078 22.5993 7.60921L22.5597 7.51452L22.4888 7.35065L22.0423 7.14984L21.6082 6.95746L21.1733 6.76977L20.7378 6.58846L20.3016 6.41549L19.8647 6.25237L19.4272 6.10096L18.9888 5.96287L18.5497 5.83968L18.11 5.73271L17.6694 5.64327L17.2284 5.57249L16.7868 5.52121L16.3447 5.48999ZM15.8979 5.67609L16.331 5.68621L16.7641 5.71649L17.1973 5.76665L17.6304 5.83602L18.0635 5.92377L18.4966 6.02896L18.9298 6.15037L19.3629 6.28677L19.796 6.43659L20.2291 6.59821L20.6623 6.77005L21.0954 6.95024L21.5285 7.13727L21.9616 7.32918L22.3389 7.49887C22.9171 8.82732 23.234 10.2547 23.2722 11.7031L23.2752 11.8565L23.2761 11.9997L23.2752 12.143C23.2622 13.1613 23.1114 14.1731 22.8268 15.1509L22.3948 15.0591L21.9616 14.9584L21.5285 14.8489L21.0954 14.7305L20.6623 14.603L20.2291 14.4666L19.796 14.3211L19.3629 14.1671L18.9298 14.0049L18.4966 13.835L18.0635 13.6581L17.6304 13.475L17.1973 13.2865L16.7641 13.0941L16.331 12.8989L15.4648 12.5053L15.0316 12.3101L14.5985 12.1182L14.1654 11.9313L13.7323 11.751L13.2991 11.5791L12.866 11.4175L12.4329 11.2677L11.9998 11.1314L11.5666 11.0099L11.1335 10.9047L10.7004 10.817L10.2673 10.7476L9.83414 10.6974L9.40101 10.6671L8.96789 10.657L8.53476 10.6671L8.10164 10.6974L7.66851 10.7476L7.23539 10.817L6.80226 10.9047L6.36914 11.0099L5.93601 11.1314L5.50289 11.2677L5.06976 11.4175L4.63664 11.5791L4.20351 11.751L3.77039 11.9313L3.33726 12.1182L2.90414 12.3101L2.47101 12.5053L1.60476 12.8989L1.17164 13.0941L0.794295 13.2617C0.686454 12.3039 0.701829 11.3363 0.840045 10.3824L1.17155 10.33L1.60467 10.2541L2.0378 10.1702L2.47092 10.078L2.90405 9.97743L3.33717 9.86793L3.7703 9.74952L4.20342 9.62202L4.63655 9.48552L5.06967 9.34021L5.5028 9.18618L5.93592 9.02399L6.36905 8.85402L6.80217 8.67712L7.2353 8.49393L7.66842 8.30568L8.10155 8.11321L8.53467 7.91793L9.40092 7.52437L9.83405 7.32918L10.2672 7.13727L10.7003 6.95024L11.1334 6.77005L11.5665 6.59821L11.9997 6.43659L12.4328 6.28677L12.8659 6.15037L13.299 6.02896L13.7322 5.92377L14.1653 5.83593L14.5985 5.76655L15.0316 5.71649L15.4648 5.68621L15.8979 5.67609Z" fill="white"/>
<path d="M15.8978 5.62939L16.3331 5.63952L16.7684 5.66999L17.2036 5.72033L17.6387 5.78999L18.0737 5.87811L18.5085 5.98377L18.9431 6.10564L19.3776 6.24252L19.8118 6.39261L20.2464 6.5548L20.6802 6.72693L21.1139 6.90739L21.5475 7.09461L21.9809 7.28661L22.3748 7.46408C22.9678 8.8206 23.289 10.2802 23.3204 11.7604L23.322 11.8564L23.3229 12.0002L23.322 12.1437C23.3088 13.1808 23.1532 14.2111 22.8595 15.2059L22.3842 15.1049L21.9502 15.004L21.5161 14.8943L21.0821 14.7756L20.6481 14.6479L20.2142 14.5112L19.7803 14.3655L19.3464 14.2112L18.9127 14.0487L18.4789 13.8786L18.0452 13.7014L17.6117 13.5181L17.1782 13.3296L16.7449 13.1371L16.3116 12.9417L15.4455 12.5482L15.0126 12.3532L14.5799 12.1614L14.1473 11.9747L13.715 11.7947L13.2828 11.6233L12.8501 11.4619L12.4181 11.3124L11.9863 11.1765L11.5547 11.0555L11.1233 10.9506L10.692 10.8633L10.2608 10.7942L9.82978 10.7443L9.39872 10.7142L8.96785 10.7041L8.53688 10.7142L8.10591 10.7443L7.67485 10.7942L7.2436 10.8633L6.81235 10.9506L6.38091 11.0555L5.94928 11.1764L5.51747 11.3124L5.08556 11.4619L4.65385 11.6229L4.22147 11.7945L3.78891 11.9745L3.35616 12.1612L2.92332 12.3531L2.49028 12.5481L1.62394 12.9418L1.19063 13.1372L0.754971 13.3308C0.637372 12.3369 0.652031 11.3318 0.798565 10.3418L1.16344 10.284L1.59572 10.2081L2.0281 10.1245L2.46028 10.0326L2.89257 9.93215L3.32475 9.82293L3.75703 9.7048L4.18932 9.57749L4.62169 9.44127L5.05397 9.29624L5.48635 9.14249L5.91882 8.98049L6.35138 8.8108L6.78394 8.63408L7.2166 8.45118L7.64944 8.26302L8.08228 8.07064L8.51532 7.87536L9.38166 7.4818L9.81507 7.28652L10.2487 7.09433L10.6823 6.90721L11.1161 6.72664L11.5502 6.55452L11.9839 6.39261L12.4181 6.24243L12.8526 6.10564L13.2872 5.98377L13.722 5.87821L14.157 5.79008L14.592 5.72033L15.0273 5.66999L15.4626 5.63952L15.8978 5.62939Z" fill="#7DB0BC" stroke="white" stroke-width="0.09375"/>
<path d="M8.9679 10.8735L9.40102 10.8837L9.83415 10.9139L10.2673 10.9641L10.7004 11.0335L11.1335 11.1212L11.5666 11.2264L11.9998 11.3479L12.4329 11.4842L12.866 11.634L13.2991 11.7957L13.7323 11.9675L14.1654 12.1478L14.5985 12.3347L15.0316 12.5266L15.4648 12.7218L15.8979 12.9186L16.331 13.1154L16.7641 13.3107L17.1973 13.5031L17.6304 13.6915L18.0635 13.8746L18.4966 14.0515L18.9298 14.2214L19.3629 14.3836L19.796 14.5377L20.2291 14.683L20.6623 14.8196L21.0954 14.9471L21.5285 15.0654L21.9616 15.1749L22.3948 15.2756L22.7656 15.3543C22.2738 16.9325 21.4411 18.3832 20.3263 19.6039C19.2116 20.8245 17.8422 21.7851 16.315 22.4176C13.552 23.562 10.4475 23.562 7.68453 22.4175C4.92154 21.273 2.72634 19.0778 1.5818 16.3149C1.20414 15.4031 0.947798 14.4457 0.819336 13.4671L1.17155 13.3107L1.60468 13.1154L2.0378 12.9185L2.47093 12.7218L2.90405 12.5266L3.33718 12.3347L3.7703 12.1478L4.20343 11.9675L4.63655 11.7957L5.06968 11.634L5.5028 11.4842L5.93593 11.3479L6.36905 11.2264L6.80218 11.1212L7.23531 11.0335L7.66843 10.9641L8.10155 10.9139L8.53468 10.8837L8.9679 10.8735Z" fill="#5C7DA2"/>
<path d="M9.83419 13.7935V15.2459H12.4329V17.2518H15.0317V18.6237H17.6304V19.2028H20.2292V19.709C18.6616 21.3824 16.6211 22.5381 14.3798 23.0221C12.1385 23.506 9.8029 23.2952 7.6845 22.4177C5.26267 21.4145 3.26601 19.5989 2.03784 17.283V15.9298H4.63659V14.1197H7.23534V13.7935H9.83419Z" fill="#444876"/>
<path d="M9.92288 13.7046V15.1571H12.5216V17.1628H15.1204V18.5349H17.7191V19.114H20.3179L20.3181 19.6129C20.2596 19.6767 20.2004 19.7399 20.1404 19.8026L20.1403 19.2912H17.7191V21.7178C17.6603 21.7525 17.6011 21.7866 17.5416 21.8202V18.7122L15.1204 18.7122V22.8355C15.0613 22.8525 15.0021 22.8691 14.9428 22.8851V17.3402H12.5216V23.2638C12.4624 23.2665 12.4033 23.2688 12.3441 23.2707V15.3344H9.92288V23.0829C9.86357 23.0718 9.80435 23.0602 9.74522 23.0482L9.74532 13.8819H7.32404V14.0309L7.32413 22.2608C7.26463 22.2337 7.20541 22.2061 7.14647 22.178L7.14657 14.2083H4.72529V15.8409V20.6156C4.6656 20.5652 4.60644 20.5142 4.54782 20.4627V16.0183H2.12654L2.12644 17.4467C2.06544 17.3362 2.00629 17.2246 1.94897 17.1119L1.94916 15.8409H4.54791V14.0309H7.14666V13.7046H9.92288Z" fill="white"/>
<path d="M11.9997 0C15.1558 8.92839e-05 18.1848 1.24353 20.4306 3.46098C22.6764 5.67844 23.9582 8.69137 23.9984 11.8472L23.9993 11.9997L23.9984 12.1522C23.9582 15.308 22.6764 18.3209 20.4306 20.5384C18.1848 22.7558 15.1558 23.9993 11.9997 23.9993C8.81725 23.9993 5.76515 22.735 3.51478 20.4847C1.26442 18.2344 0.000124314 15.1823 0 11.9998C4.97259e-05 8.8173 1.26432 5.76514 3.51469 3.51475C5.76506 1.26436 8.8172 7.45898e-05 11.9997 0ZM11.9997 0.394031C8.92172 0.394106 5.96981 1.61687 3.79334 3.79334C1.61687 5.96981 0.394106 8.92172 0.394031 11.9997C0.394131 15.0777 1.6169 18.0296 3.79337 20.206C5.96984 22.3825 8.92174 23.6052 11.9997 23.6053C15.0521 23.6052 17.9816 22.4026 20.1537 20.258C22.3258 18.1133 23.5655 15.1994 23.6044 12.1472L23.6053 11.9997L23.6044 11.8523C23.5655 8.80006 22.3258 5.88605 20.1537 3.7414C17.9817 1.59675 15.0522 0.394129 11.9997 0.394031Z" fill="#444876"/>
</g>
<defs>
<clipPath id="clip0_1272_367">
<rect width="24" height="24" fill="white"/>
</clipPath>
</defs>
</svg>
