<svg width="24" height="24" viewBox="0 0 24 24" fill="none" xmlns="http://www.w3.org/2000/svg">
<g clip-path="url(#clip0_1272_363)">
<path d="M13.0312 18.5957C13.0201 18.4589 13.0136 18.3707 13.0136 18.3707C13.0136 18.3707 12.5999 15.5791 12.1068 14.7456C12.0292 14.6131 12.1149 14.0717 12.3331 13.2681C12.4606 13.4873 12.9969 14.4291 13.1053 14.7325C13.2268 15.0745 13.2515 15.1726 13.2515 15.1726C13.2515 15.1726 12.9571 13.6572 12.4745 12.7731C12.5918 12.3791 12.7171 11.9874 12.8503 11.5984C13.0327 11.9191 13.4714 12.697 13.568 12.9672C13.5871 13.0221 13.604 13.069 13.6186 13.1123L13.6325 13.0347C13.5219 12.5652 13.3044 11.7484 13.007 11.1443C13.667 7.70781 15.9191 3.1148 18.227 1.06543H3.16869C2.15863 1.06543 1.33325 1.89155 1.33325 2.90087V19.5077C1.33325 20.5171 2.15938 21.3432 3.16888 21.3432H13.0871C13.0121 20.4294 12.9935 19.512 13.0314 18.5959" fill="#0B7FCC"/>
<path d="M12.3332 13.268C12.4607 13.487 12.9969 14.4282 13.1051 14.7321C13.2268 15.0741 13.2515 15.1722 13.2515 15.1722C13.2515 15.1722 12.9572 13.6568 12.4745 12.7728C12.592 12.3784 12.7172 11.9865 12.8503 11.5971C13.0166 11.891 13.3982 12.5663 13.535 12.8856L13.5504 12.7055C13.4289 12.2375 13.2442 11.6243 13.007 11.144C13.6149 7.98065 15.572 3.83709 17.6807 1.60059H3.16853C2.82384 1.60088 2.49335 1.73793 2.2496 1.98165C2.00585 2.22536 1.86876 2.55583 1.86841 2.90052V18.2961C5.15472 17.0341 9.11791 15.8811 12.5287 15.931C12.4027 15.4426 12.2585 15.001 12.1068 14.7453C12.0292 14.6127 12.1149 14.0708 12.3332 13.268Z" fill="url(#paint0_linear_1272_363)"/>
<path d="M21.7406 0.521302C20.7093 -0.398573 19.4598 -0.0286358 18.2279 1.06486C18.0376 1.235 17.8553 1.41388 17.6816 1.60093C15.5722 3.83705 13.6158 7.98024 13.0079 11.1437C13.2446 11.6243 13.4298 12.2372 13.5506 12.7052C13.5821 12.8252 13.6106 12.9381 13.6334 13.0341C13.6869 13.2604 13.7154 13.4084 13.7154 13.4084C13.7154 13.4084 13.6964 13.3366 13.6188 13.1117C13.6042 13.0686 13.5873 13.021 13.5682 12.9668C13.5582 12.9394 13.5475 12.9122 13.5359 12.8854C13.3983 12.5661 13.0175 11.8907 12.8504 11.5979C12.7076 12.0197 12.581 12.4154 12.4747 12.7726C12.9581 13.6566 13.2526 15.172 13.2526 15.172C13.2526 15.172 13.2269 15.0739 13.106 14.7319C12.9976 14.428 12.4608 13.4869 12.3341 13.2677C12.1158 14.0704 12.0294 14.6125 12.1078 14.7452C12.2594 15.0006 12.4029 15.4431 12.5296 15.9308C12.8154 17.0309 13.0145 18.3706 13.0145 18.3706C13.0145 18.3706 13.0203 18.4585 13.0321 18.5956C12.9942 19.5115 13.0128 20.4289 13.0878 21.3426C13.1823 22.4882 13.3603 23.4732 13.5873 23.9999L13.7426 23.9157C13.4086 22.8779 13.2731 21.517 13.3323 19.9489C13.4223 17.5502 13.9739 14.6586 14.9928 11.6447C16.7161 7.09411 19.1062 3.44386 21.2932 1.70068C19.2995 3.50105 16.6014 9.32893 15.7934 11.4872C14.8897 13.9043 14.2488 16.1717 13.862 18.3449C14.5276 16.3081 16.6833 15.433 16.6833 15.433C16.6833 15.433 17.7403 14.1284 18.9759 12.2665C18.2353 12.4358 17.0203 12.7244 16.6138 12.895C16.0138 13.147 15.8512 13.2325 15.8512 13.2325C15.8512 13.2325 17.7958 12.049 19.4643 11.5129C21.7582 7.8998 24.2572 2.76643 21.7408 0.521489" fill="#003956"/>
</g>
<defs>
<linearGradient id="paint0_linear_1272_363" x1="10.9856" y1="1.94075" x2="10.9856" y2="17.3669" gradientUnits="userSpaceOnUse">
<stop stop-color="#95D7F4"/>
<stop offset="0.92" stop-color="#0F7FCC"/>
<stop offset="1" stop-color="#0F7FCC"/>
</linearGradient>
<clipPath id="clip0_1272_363">
<rect width="24" height="24" fill="white"/>
</clipPath>
</defs>
</svg>
